# xmcd
#
# Track frame offsets: 
#        150
#        10653
#        22921
#        32664
#        45207
#        56634
#        70151
#        79124
#        89432
#        104006
#        118186
#        130089
#        145642
#        156434
#        171763
#        182012
#
# Disc length: 2542 seconds
#
# Revision: 1
# Processed by: cddbd v1.5.2PL0 Copyright (c) Steve Scherf et al.
# Submitted via: ExactAudioCopy v0.99pb5
#
DISCID=ca09ec10
DTITLE=Dupree 'n' McPhee - Champion Jack Dupree with TS McPhee: The 19
DTITLE=67 Blue Horizon Session
DYEAR=2005
DGENRE=Blues
TTITLE0=Get Your Head Happy
TTITLE1=Sick In Bed
TTITLE2=Papa Told Mama
TTITLE3=Easy Is The Way
TTITLE4=Who Was Here A While Ago
TTITLE5=Down In Clarksdale
TTITLE6=Baby Don't You Put Me Out
TTITLE7=My Baby Told Me
TTITLE8=No Meat Blues
TTITLE9=My Darling
TTITLE10=Dead Cat On The Line
TTITLE11=Talk All In My Sleep
TTITLE12=Got My Ticket
TTITLE13=My Home In Mississippi
TTITLE14=Black Snake Breakdown
TTITLE15=The Snow Is On The Ground
EXTD=YEAR: 2005
EXTT0=
EXTT1=
EXTT2=
EXTT3=
EXTT4=
EXTT5=
EXTT6=
EXTT7=
EXTT8=
EXTT9=
EXTT10=
EXTT11=
EXTT12=
EXTT13=
EXTT14=
EXTT15=
PLAYORDER=
